Flexion_states
version=1
nRows=12
nColumns=41
inDegrees=yes

# SIMM Motion File Header:
name Flexion_states
datacolumns 41
datarows 12
otherdata 1
range 0.00000000 1.58120690
endheader
time	/jointset/ground_thorax/thorax_tilt/value	/jointset/ground_thorax/thorax_tilt/speed	/jointset/ground_thorax/thorax_list/value	/jointset/ground_thorax/thorax_list/speed	/jointset/ground_thorax/thorax_rotation/value	/jointset/ground_thorax/thorax_rotation/speed	/jointset/ground_thorax/thorax_tx/value	/jointset/ground_thorax/thorax_tx/speed	/jointset/ground_thorax/thorax_ty/value	/jointset/ground_thorax/thorax_ty/speed	/jointset/ground_thorax/thorax_tz/value	/jointset/ground_thorax/thorax_tz/speed	/jointset/sternoclavicular/sternoclavicular_r2/value	/jointset/sternoclavicular/sternoclavicular_r2/speed	/jointset/sternoclavicular/sternoclavicular_r3/value	/jointset/sternoclavicular/sternoclavicular_r3/speed	/jointset/unrotscap/unrotscap_r3/value	/jointset/unrotscap/unrotscap_r3/speed	/jointset/unrotscap/unrotscap_r2/value	/jointset/unrotscap/unrotscap_r2/speed	/jointset/acromioclavicular/acromioclavicular_r2/value	/jointset/acromioclavicular/acromioclavicular_r2/speed	/jointset/acromioclavicular/acromioclavicular_r3/value	/jointset/acromioclavicular/acromioclavicular_r3/speed	/jointset/acromioclavicular/acromioclavicular_r1/value	/jointset/acromioclavicular/acromioclavicular_r1/speed	/jointset/unrothum/unrothum_r1/value	/jointset/unrothum/unrothum_r1/speed	/jointset/unrothum/unrothum_r3/value	/jointset/unrothum/unrothum_r3/speed	/jointset/unrothum/unrothum_r2/value	/jointset/unrothum/unrothum_r2/speed	/jointset/shoulder0/elv_angle/value	/jointset/shoulder0/elv_angle/speed	/jointset/shoulder1/shoulder_elv/value	/jointset/shoulder1/shoulder_elv/speed	/jointset/shoulder1/shoulder1_r2/value	/jointset/shoulder1/shoulder1_r2/speed	/jointset/shoulder2/shoulder_rot/value	/jointset/shoulder2/shoulder_rot/speed
      0.00000000	      0.00000000	      0.00000000	      0.00000000	      0.00000000	      0.00000000	      0.00000000	      0.00000000	      0.00000000	      0.00000000	      0.00000000	      0.00000000	      0.00000000	      0.00000000	      0.00000000	     -0.00000000	      0.00000000	      0.00000000	      0.00000000	     -0.00000000	      0.00000000	      0.00000000	      0.00000000	     -0.00000000	      0.00000000	     -0.00000000	      0.00000000	      0.00000000	      0.00000000	      0.00000000	      0.00000000	     -0.00000000	      0.00000000	     90.00000000	      0.00000000	     -0.00000000	      0.00000000	    -90.00000000	      0.00000000	      0.00000000	      0.00000000
      0.01000000	      0.00000000	      0.00000000	      0.00000000	      0.00000000	      0.00000000	      0.00000000	     -0.00000000	     -0.00000000	      0.00000000	      0.00000000	     -0.00000000	     -0.00000000	     -0.00065555	     -0.13108835	      0.00027766	      0.05552279	     -0.00027766	     -0.05552279	      0.00065555	      0.13108835	     -0.00013273	     -0.02654252	      0.00107269	      0.21450445	      0.00048218	      0.09642044	     -0.00048218	     -0.09642044	     -0.00107269	     -0.21450445	      0.00013273	      0.02654252	     90.00000000	     -0.00000000	      0.00270889	      0.54169253	    -90.00000000	      0.00000000	      0.00000000	      0.00000000
      0.06000000	      0.00000000	      0.00000000	      0.00000000	      0.00000000	     -0.00000000	     -0.00000000	      0.00000000	      0.00000000	     -0.00000000	     -0.00000000	     -0.00000000	     -0.00000000	     -0.02356236	     -0.78466609	      0.00997990	      0.33234726	     -0.00997990	     -0.33234726	      0.02356236	      0.78466609	     -0.00477086	     -0.15887770	      0.03855592	      1.28397654	      0.01733101	      0.57715160	     -0.01733101	     -0.57715160	     -0.03855592	     -1.28397654	      0.00477086	      0.15887770	     90.00000000	      0.00000000	      0.09736606	      3.24245257	    -90.00000000	      0.00000000	      0.00000000	      0.00000000
      0.31000000	      0.00000000	      0.00000000	     -0.00000000	     -0.00000000	     -0.00000000	     -0.00000000	      0.00000000	     -0.00000000	     -0.00000000	     -0.00000000	     -0.00000000	     -0.00000000	     -0.62397942	     -4.00553743	      0.26428802	      1.69655527	     -0.26428802	     -1.69655527	      0.62397942	      4.00553743	     -0.12634217	     -0.81103361	      1.02103932	      6.55440084	      0.45896047	      2.94622436	     -0.45896047	     -2.94622436	     -1.02103932	     -6.55440084	      0.12634217	      0.81103361	     90.00000000	     -0.00000000	      2.57845176	     16.55196430	    -90.00000000	      0.00000000	      0.00000000	      0.00000000
      1.01311669	      0.00000000	      0.00000000	     -0.00000000	     -0.00000000	     -0.00000000	     -0.00000000	     -0.00000000	     -0.00000000	     -0.00000000	     -0.00000000	     -0.00000000	     -0.00000000	     -6.50952232	    -12.62229149	      2.75712425	      5.34620272	     -2.75712425	     -5.34620272	      6.50952232	     12.62229149	     -1.31803571	     -2.55573759	     10.65175881	     20.65429656	      4.78800000	      9.28417305	     -4.78800000	     -9.28417305	    -10.65175881	    -20.65429656	      1.31803571	      2.55573759	     90.00000000	      0.00000000	     26.89910732	     52.15872325	    -90.00000000	     -0.00000000	      0.00000000	      0.00000000
      1.08823592	      0.00000000	      0.00000000	     -0.00000000	     -0.00000000	     -0.00000000	     -0.00000000	     -0.00000000	     -0.00000000	     -0.00000000	     -0.00000000	     -0.00000000	     -0.00000000	     -7.49076413	    -13.50118874	      3.17273164	      5.71846182	     -3.17273164	     -5.71846182	      7.49076413	     13.50118874	     -1.51671569	     -2.73369504	     12.25739906	     22.09246684	      5.50974049	      9.93063523	     -5.50974049	     -9.93063523	    -12.25739906	    -22.09246684	      1.51671569	      2.73369504	     90.00000000	      0.00000000	     30.95386394	     55.79056446	    -90.00000000	     -0.00000000	      0.00000000	      0.00000000
      1.21118556	      0.00000000	      0.00000000	     -0.00000000	     -0.00000000	     -0.00000000	     -0.00000000	     -0.00000000	     -0.00000000	     -0.00000000	     -0.00000000	     -0.00000000	     -0.00000000	     -9.23823868	    -14.92051523	      3.91287880	      6.31962106	     -3.91287880	     -6.31962106	      9.23823868	     14.92051523	     -1.87054101	     -3.02107757	     15.11685271	     24.41496036	      6.79507414	     10.97460358	     -6.79507414	    -10.97460358	    -15.11685271	    -24.41496036	      1.87054101	      3.02107757	     90.00000000	      0.00000000	     38.17490152	     61.65560551	    -90.00000000	     -0.00000000	      0.00000000	      0.00000000
      1.30894121	      0.00000000	      0.00000000	     -0.00000000	     -0.00000000	     -0.00000000	     -0.00000000	     -0.00000000	     -0.00000000	     -0.00000000	     -0.00000000	     -0.00000000	     -0.00000000	    -10.75113463	    -16.02791399	      4.55366962	      6.78866254	     -4.55366962	     -6.78866254	     10.75113463	     16.02791399	     -2.17686931	     -3.24530157	     17.59245722	     26.22703565	      7.90786637	     11.78913727	     -7.90786637	    -11.78913727	    -17.59245722	    -26.22703565	      2.17686931	      3.24530157	     90.00000000	      0.00000000	     44.42659689	     66.23167678	    -90.00000000	     -0.00000000	      0.00000000	      0.00000000
      1.39409353	      0.00000000	      0.00000000	     -0.00000000	     -0.00000000	     -0.00000000	     -0.00000000	     -0.00000000	     -0.00000000	     -0.00000000	     -0.00000000	     -0.00000000	     -0.00000000	    -12.15592122	    -16.95682830	      5.14867044	      7.18210649	     -5.14867044	     -7.18210649	     12.15592122	     16.95682830	     -2.46130783	     -3.43338637	     19.89115859	     27.74705059	      8.94114006	     12.47238890	     -8.94114006	    -12.47238890	    -19.89115859	    -27.74705059	      2.46130783	      3.43338637	     90.00000000	      0.00000000	     50.23155513	     70.07020203	    -90.00000000	     -0.00000000	      0.00000000	      0.00000000
      1.46420129	      0.00000000	      0.00000000	     -0.00000000	     -0.00000000	     -0.00000000	     -0.00000000	     -0.00000000	     -0.00000000	     -0.00000000	     -0.00000000	     -0.00000000	     -0.00000000	    -13.36929640	    -17.63379090	      5.66259850	      7.46883567	     -5.66259850	     -7.46883567	     13.36929640	     17.63379090	     -2.70698973	     -3.57045647	     21.87664679	     28.85478813	      9.83362343	     12.97032051	     -9.83362343	    -12.97032051	    -21.87664679	    -28.85478813	      2.70698973	      3.57045647	     90.00000000	      0.00000000	     55.24554963	     72.86759461	    -90.00000000	     -0.00000000	      0.00000000	      0.00000000
      1.52270410	      0.00000000	      0.00000000	     -0.00000000	     -0.00000000	     -0.00000000	     -0.00000000	     -0.00000000	     -0.00000000	     -0.00000000	     -0.00000000	     -0.00000000	     -0.00000000	    -14.41323458	    -18.00797563	      6.10476109	      7.62732254	     -6.10476109	     -7.62732254	     14.41323458	     18.00797563	     -2.91836435	     -3.64622068	     23.58487931	     29.46707969	     10.60147946	     13.24554754	    -10.60147946	    -13.24554754	    -23.58487931	    -29.46707969	      2.91836435	      3.64622068	     90.00000000	      0.00000000	     59.55938461	     74.41382716	    -90.00000000	     -0.00000000	      0.00000000	      0.00000000
      1.58120690	      0.00000000	      0.00000000	     -0.00000000	     -0.00000000	     -0.00000000	     -0.00000000	     -0.00000000	     -0.00000000	     -0.00000000	     -0.00000000	     -0.00000000	     -0.00000000	    -15.46788493	    -17.93901892	      6.55146085	      7.59811575	     -6.55146085	     -7.59811575	     15.46788493	     17.93901892	     -3.13190795	     -3.63225846	     25.31064053	     29.35424342	     11.37721471	     13.19482727	    -11.37721471	    -13.19482727	    -25.31064053	    -29.35424342	      3.13190795	      3.63225846	     90.00000000	      0.00000000	     63.91748520	     74.12887939	    -90.00000000	     -0.00000000	      0.00000000	      0.00000000
